<?xml version="1.0" encoding="utf-8" standalone="no"?>
<!DOCTYPE svg PUBLIC "-//W3C//DTD SVG 1.1//EN"
  "http://www.w3.org/Graphics/SVG/1.1/DTD/svg11.dtd">
<!-- Created with matplotlib (https://matplotlib.org/) -->
<svg height="297.190125pt" version="1.1" viewBox="0 0 407.148125 297.190125" width="407.148125pt" xmlns="http://www.w3.org/2000/svg" xmlns:xlink="http://www.w3.org/1999/xlink">
 <defs>
  <style type="text/css">
*{stroke-linecap:butt;stroke-linejoin:round;}
  </style>
 </defs>
 <g id="figure_1">
  <g id="patch_1">
   <path d="M 0 297.190125 
L 407.148125 297.190125 
L 407.148125 0 
L 0 0 
z
" style="fill:#ffffff;"/>
  </g>
  <g id="axes_1">
   <g id="patch_2">
    <path d="M 42.828125 273.312 
L 399.948125 273.312 
L 399.948125 7.2 
L 42.828125 7.2 
z
" style="fill:#ffffff;"/>
   </g>
   <g id="matplotlib.axis_1">
    <g id="xtick_1">
     <g id="line2d_1">
      <path clip-path="url(#p25c5e98b47)" d="M 59.060852 273.312 
L 59.060852 7.2 
" style="fill:none;stroke:#b0b0b0;stroke-linecap:square;stroke-width:0.8;"/>
     </g>
     <g id="line2d_2">
      <defs>
       <path d="M 0 0 
L 0 3.5 
" id="m75bddb6e6e" style="stroke:#000000;stroke-width:0.8;"/>
      </defs>
      <g>
       <use style="stroke:#000000;stroke-width:0.8;" x="59.060852" xlink:href="#m75bddb6e6e" y="273.312"/>
      </g>
     </g>
     <g id="text_1">
      <!-- 0 -->
      <defs>
       <path d="M 31.78125 66.40625 
Q 24.171875 66.40625 20.328125 58.90625 
Q 16.5 51.421875 16.5 36.375 
Q 16.5 21.390625 20.328125 13.890625 
Q 24.171875 6.390625 31.78125 6.390625 
Q 39.453125 6.390625 43.28125 13.890625 
Q 47.125 21.390625 47.125 36.375 
Q 47.125 51.421875 43.28125 58.90625 
Q 39.453125 66.40625 31.78125 66.40625 
z
M 31.78125 74.21875 
Q 44.046875 74.21875 50.515625 64.515625 
Q 56.984375 54.828125 56.984375 36.375 
Q 56.984375 17.96875 50.515625 8.265625 
Q 44.046875 -1.421875 31.78125 -1.421875 
Q 19.53125 -1.421875 13.0625 8.265625 
Q 6.59375 17.96875 6.59375 36.375 
Q 6.59375 54.828125 13.0625 64.515625 
Q 19.53125 74.21875 31.78125 74.21875 
z
" id="DejaVuSans-48"/>
      </defs>
      <g transform="translate(55.879602 287.910437)scale(0.1 -0.1)">
       <use xlink:href="#DejaVuSans-48"/>
      </g>
     </g>
    </g>
    <g id="xtick_2">
     <g id="line2d_3">
      <path clip-path="url(#p25c5e98b47)" d="M 127.409178 273.312 
L 127.409178 7.2 
" style="fill:none;stroke:#b0b0b0;stroke-linecap:square;stroke-width:0.8;"/>
     </g>
     <g id="line2d_4">
      <g>
       <use style="stroke:#000000;stroke-width:0.8;" x="127.409178" xlink:href="#m75bddb6e6e" y="273.312"/>
      </g>
     </g>
     <g id="text_2">
      <!-- 20 -->
      <defs>
       <path d="M 19.1875 8.296875 
L 53.609375 8.296875 
L 53.609375 0 
L 7.328125 0 
L 7.328125 8.296875 
Q 12.9375 14.109375 22.625 23.890625 
Q 32.328125 33.6875 34.8125 36.53125 
Q 39.546875 41.84375 41.421875 45.53125 
Q 43.3125 49.21875 43.3125 52.78125 
Q 43.3125 58.59375 39.234375 62.25 
Q 35.15625 65.921875 28.609375 65.921875 
Q 23.96875 65.921875 18.8125 64.3125 
Q 13.671875 62.703125 7.8125 59.421875 
L 7.8125 69.390625 
Q 13.765625 71.78125 18.9375 73 
Q 24.125 74.21875 28.421875 74.21875 
Q 39.75 74.21875 46.484375 68.546875 
Q 53.21875 62.890625 53.21875 53.421875 
Q 53.21875 48.921875 51.53125 44.890625 
Q 49.859375 40.875 45.40625 35.40625 
Q 44.1875 33.984375 37.640625 27.21875 
Q 31.109375 20.453125 19.1875 8.296875 
z
" id="DejaVuSans-50"/>
      </defs>
      <g transform="translate(121.046678 287.910437)scale(0.1 -0.1)">
       <use xlink:href="#DejaVuSans-50"/>
       <use x="63.623047" xlink:href="#DejaVuSans-48"/>
      </g>
     </g>
    </g>
    <g id="xtick_3">
     <g id="line2d_5">
      <path clip-path="url(#p25c5e98b47)" d="M 195.757503 273.312 
L 195.757503 7.2 
" style="fill:none;stroke:#b0b0b0;stroke-linecap:square;stroke-width:0.8;"/>
     </g>
     <g id="line2d_6">
      <g>
       <use style="stroke:#000000;stroke-width:0.8;" x="195.757503" xlink:href="#m75bddb6e6e" y="273.312"/>
      </g>
     </g>
     <g id="text_3">
      <!-- 40 -->
      <defs>
       <path d="M 37.796875 64.3125 
L 12.890625 25.390625 
L 37.796875 25.390625 
z
M 35.203125 72.90625 
L 47.609375 72.90625 
L 47.609375 25.390625 
L 58.015625 25.390625 
L 58.015625 17.1875 
L 47.609375 17.1875 
L 47.609375 0 
L 37.796875 0 
L 37.796875 17.1875 
L 4.890625 17.1875 
L 4.890625 26.703125 
z
" id="DejaVuSans-52"/>
      </defs>
      <g transform="translate(189.395003 287.910437)scale(0.1 -0.1)">
       <use xlink:href="#DejaVuSans-52"/>
       <use x="63.623047" xlink:href="#DejaVuSans-48"/>
      </g>
     </g>
    </g>
    <g id="xtick_4">
     <g id="line2d_7">
      <path clip-path="url(#p25c5e98b47)" d="M 264.105828 273.312 
L 264.105828 7.2 
" style="fill:none;stroke:#b0b0b0;stroke-linecap:square;stroke-width:0.8;"/>
     </g>
     <g id="line2d_8">
      <g>
       <use style="stroke:#000000;stroke-width:0.8;" x="264.105828" xlink:href="#m75bddb6e6e" y="273.312"/>
      </g>
     </g>
     <g id="text_4">
      <!-- 60 -->
      <defs>
       <path d="M 33.015625 40.375 
Q 26.375 40.375 22.484375 35.828125 
Q 18.609375 31.296875 18.609375 23.390625 
Q 18.609375 15.53125 22.484375 10.953125 
Q 26.375 6.390625 33.015625 6.390625 
Q 39.65625 6.390625 43.53125 10.953125 
Q 47.40625 15.53125 47.40625 23.390625 
Q 47.40625 31.296875 43.53125 35.828125 
Q 39.65625 40.375 33.015625 40.375 
z
M 52.59375 71.296875 
L 52.59375 62.3125 
Q 48.875 64.0625 45.09375 64.984375 
Q 41.3125 65.921875 37.59375 65.921875 
Q 27.828125 65.921875 22.671875 59.328125 
Q 17.53125 52.734375 16.796875 39.40625 
Q 19.671875 43.65625 24.015625 45.921875 
Q 28.375 48.1875 33.59375 48.1875 
Q 44.578125 48.1875 50.953125 41.515625 
Q 57.328125 34.859375 57.328125 23.390625 
Q 57.328125 12.15625 50.6875 5.359375 
Q 44.046875 -1.421875 33.015625 -1.421875 
Q 20.359375 -1.421875 13.671875 8.265625 
Q 6.984375 17.96875 6.984375 36.375 
Q 6.984375 53.65625 15.1875 63.9375 
Q 23.390625 74.21875 37.203125 74.21875 
Q 40.921875 74.21875 44.703125 73.484375 
Q 48.484375 72.75 52.59375 71.296875 
z
" id="DejaVuSans-54"/>
      </defs>
      <g transform="translate(257.743328 287.910437)scale(0.1 -0.1)">
       <use xlink:href="#DejaVuSans-54"/>
       <use x="63.623047" xlink:href="#DejaVuSans-48"/>
      </g>
     </g>
    </g>
    <g id="xtick_5">
     <g id="line2d_9">
      <path clip-path="url(#p25c5e98b47)" d="M 332.454154 273.312 
L 332.454154 7.2 
" style="fill:none;stroke:#b0b0b0;stroke-linecap:square;stroke-width:0.8;"/>
     </g>
     <g id="line2d_10">
      <g>
       <use style="stroke:#000000;stroke-width:0.8;" x="332.454154" xlink:href="#m75bddb6e6e" y="273.312"/>
      </g>
     </g>
     <g id="text_5">
      <!-- 80 -->
      <defs>
       <path d="M 31.78125 34.625 
Q 24.75 34.625 20.71875 30.859375 
Q 16.703125 27.09375 16.703125 20.515625 
Q 16.703125 13.921875 20.71875 10.15625 
Q 24.75 6.390625 31.78125 6.390625 
Q 38.8125 6.390625 42.859375 10.171875 
Q 46.921875 13.96875 46.921875 20.515625 
Q 46.921875 27.09375 42.890625 30.859375 
Q 38.875 34.625 31.78125 34.625 
z
M 21.921875 38.8125 
Q 15.578125 40.375 12.03125 44.71875 
Q 8.5 49.078125 8.5 55.328125 
Q 8.5 64.0625 14.71875 69.140625 
Q 20.953125 74.21875 31.78125 74.21875 
Q 42.671875 74.21875 48.875 69.140625 
Q 55.078125 64.0625 55.078125 55.328125 
Q 55.078125 49.078125 51.53125 44.71875 
Q 48 40.375 41.703125 38.8125 
Q 48.828125 37.15625 52.796875 32.3125 
Q 56.78125 27.484375 56.78125 20.515625 
Q 56.78125 9.90625 50.3125 4.234375 
Q 43.84375 -1.421875 31.78125 -1.421875 
Q 19.734375 -1.421875 13.25 4.234375 
Q 6.78125 9.90625 6.78125 20.515625 
Q 6.78125 27.484375 10.78125 32.3125 
Q 14.796875 37.15625 21.921875 38.8125 
z
M 18.3125 54.390625 
Q 18.3125 48.734375 21.84375 45.5625 
Q 25.390625 42.390625 31.78125 42.390625 
Q 38.140625 42.390625 41.71875 45.5625 
Q 45.3125 48.734375 45.3125 54.390625 
Q 45.3125 60.0625 41.71875 63.234375 
Q 38.140625 66.40625 31.78125 66.40625 
Q 25.390625 66.40625 21.84375 63.234375 
Q 18.3125 60.0625 18.3125 54.390625 
z
" id="DejaVuSans-56"/>
      </defs>
      <g transform="translate(326.091654 287.910437)scale(0.1 -0.1)">
       <use xlink:href="#DejaVuSans-56"/>
       <use x="63.623047" xlink:href="#DejaVuSans-48"/>
      </g>
     </g>
    </g>
   </g>
   <g id="matplotlib.axis_2">
    <g id="ytick_1">
     <g id="line2d_11">
      <path clip-path="url(#p25c5e98b47)" d="M 42.828125 258.777302 
L 399.948125 258.777302 
" style="fill:none;stroke:#b0b0b0;stroke-linecap:square;stroke-width:0.8;"/>
     </g>
     <g id="line2d_12">
      <defs>
       <path d="M 0 0 
L -3.5 0 
" id="me8db2c1eea" style="stroke:#000000;stroke-width:0.8;"/>
      </defs>
      <g>
       <use style="stroke:#000000;stroke-width:0.8;" x="42.828125" xlink:href="#me8db2c1eea" y="258.777302"/>
      </g>
     </g>
     <g id="text_6">
      <!-- 0.997 -->
      <defs>
       <path d="M 10.6875 12.40625 
L 21 12.40625 
L 21 0 
L 10.6875 0 
z
" id="DejaVuSans-46"/>
       <path d="M 10.984375 1.515625 
L 10.984375 10.5 
Q 14.703125 8.734375 18.5 7.8125 
Q 22.3125 6.890625 25.984375 6.890625 
Q 35.75 6.890625 40.890625 13.453125 
Q 46.046875 20.015625 46.78125 33.40625 
Q 43.953125 29.203125 39.59375 26.953125 
Q 35.25 24.703125 29.984375 24.703125 
Q 19.046875 24.703125 12.671875 31.3125 
Q 6.296875 37.9375 6.296875 49.421875 
Q 6.296875 60.640625 12.9375 67.421875 
Q 19.578125 74.21875 30.609375 74.21875 
Q 43.265625 74.21875 49.921875 64.515625 
Q 56.59375 54.828125 56.59375 36.375 
Q 56.59375 19.140625 48.40625 8.859375 
Q 40.234375 -1.421875 26.421875 -1.421875 
Q 22.703125 -1.421875 18.890625 -0.6875 
Q 15.09375 0.046875 10.984375 1.515625 
z
M 30.609375 32.421875 
Q 37.25 32.421875 41.125 36.953125 
Q 45.015625 41.5 45.015625 49.421875 
Q 45.015625 57.28125 41.125 61.84375 
Q 37.25 66.40625 30.609375 66.40625 
Q 23.96875 66.40625 20.09375 61.84375 
Q 16.21875 57.28125 16.21875 49.421875 
Q 16.21875 41.5 20.09375 36.953125 
Q 23.96875 32.421875 30.609375 32.421875 
z
" id="DejaVuSans-57"/>
       <path d="M 8.203125 72.90625 
L 55.078125 72.90625 
L 55.078125 68.703125 
L 28.609375 0 
L 18.3125 0 
L 43.21875 64.59375 
L 8.203125 64.59375 
z
" id="DejaVuSans-55"/>
      </defs>
      <g transform="translate(7.2 262.576521)scale(0.1 -0.1)">
       <use xlink:href="#DejaVuSans-48"/>
       <use x="63.623047" xlink:href="#DejaVuSans-46"/>
       <use x="95.410156" xlink:href="#DejaVuSans-57"/>
       <use x="159.033203" xlink:href="#DejaVuSans-57"/>
       <use x="222.65625" xlink:href="#DejaVuSans-55"/>
      </g>
     </g>
    </g>
    <g id="ytick_2">
     <g id="line2d_13">
      <path clip-path="url(#p25c5e98b47)" d="M 42.828125 219.2669 
L 399.948125 219.2669 
" style="fill:none;stroke:#b0b0b0;stroke-linecap:square;stroke-width:0.8;"/>
     </g>
     <g id="line2d_14">
      <g>
       <use style="stroke:#000000;stroke-width:0.8;" x="42.828125" xlink:href="#me8db2c1eea" y="219.2669"/>
      </g>
     </g>
     <g id="text_7">
      <!-- 0.998 -->
      <g transform="translate(7.2 223.066119)scale(0.1 -0.1)">
       <use xlink:href="#DejaVuSans-48"/>
       <use x="63.623047" xlink:href="#DejaVuSans-46"/>
       <use x="95.410156" xlink:href="#DejaVuSans-57"/>
       <use x="159.033203" xlink:href="#DejaVuSans-57"/>
       <use x="222.65625" xlink:href="#DejaVuSans-56"/>
      </g>
     </g>
    </g>
    <g id="ytick_3">
     <g id="line2d_15">
      <path clip-path="url(#p25c5e98b47)" d="M 42.828125 179.756497 
L 399.948125 179.756497 
" style="fill:none;stroke:#b0b0b0;stroke-linecap:square;stroke-width:0.8;"/>
     </g>
     <g id="line2d_16">
      <g>
       <use style="stroke:#000000;stroke-width:0.8;" x="42.828125" xlink:href="#me8db2c1eea" y="179.756497"/>
      </g>
     </g>
     <g id="text_8">
      <!-- 0.999 -->
      <g transform="translate(7.2 183.555716)scale(0.1 -0.1)">
       <use xlink:href="#DejaVuSans-48"/>
       <use x="63.623047" xlink:href="#DejaVuSans-46"/>
       <use x="95.410156" xlink:href="#DejaVuSans-57"/>
       <use x="159.033203" xlink:href="#DejaVuSans-57"/>
       <use x="222.65625" xlink:href="#DejaVuSans-57"/>
      </g>
     </g>
    </g>
    <g id="ytick_4">
     <g id="line2d_17">
      <path clip-path="url(#p25c5e98b47)" d="M 42.828125 140.246095 
L 399.948125 140.246095 
" style="fill:none;stroke:#b0b0b0;stroke-linecap:square;stroke-width:0.8;"/>
     </g>
     <g id="line2d_18">
      <g>
       <use style="stroke:#000000;stroke-width:0.8;" x="42.828125" xlink:href="#me8db2c1eea" y="140.246095"/>
      </g>
     </g>
     <g id="text_9">
      <!-- 1.000 -->
      <defs>
       <path d="M 12.40625 8.296875 
L 28.515625 8.296875 
L 28.515625 63.921875 
L 10.984375 60.40625 
L 10.984375 69.390625 
L 28.421875 72.90625 
L 38.28125 72.90625 
L 38.28125 8.296875 
L 54.390625 8.296875 
L 54.390625 0 
L 12.40625 0 
z
" id="DejaVuSans-49"/>
      </defs>
      <g transform="translate(7.2 144.045313)scale(0.1 -0.1)">
       <use xlink:href="#DejaVuSans-49"/>
       <use x="63.623047" xlink:href="#DejaVuSans-46"/>
       <use x="95.410156" xlink:href="#DejaVuSans-48"/>
       <use x="159.033203" xlink:href="#DejaVuSans-48"/>
       <use x="222.65625" xlink:href="#DejaVuSans-48"/>
      </g>
     </g>
    </g>
    <g id="ytick_5">
     <g id="line2d_19">
      <path clip-path="url(#p25c5e98b47)" d="M 42.828125 100.735692 
L 399.948125 100.735692 
" style="fill:none;stroke:#b0b0b0;stroke-linecap:square;stroke-width:0.8;"/>
     </g>
     <g id="line2d_20">
      <g>
       <use style="stroke:#000000;stroke-width:0.8;" x="42.828125" xlink:href="#me8db2c1eea" y="100.735692"/>
      </g>
     </g>
     <g id="text_10">
      <!-- 1.001 -->
      <g transform="translate(7.2 104.534911)scale(0.1 -0.1)">
       <use xlink:href="#DejaVuSans-49"/>
       <use x="63.623047" xlink:href="#DejaVuSans-46"/>
       <use x="95.410156" xlink:href="#DejaVuSans-48"/>
       <use x="159.033203" xlink:href="#DejaVuSans-48"/>
       <use x="222.65625" xlink:href="#DejaVuSans-49"/>
      </g>
     </g>
    </g>
    <g id="ytick_6">
     <g id="line2d_21">
      <path clip-path="url(#p25c5e98b47)" d="M 42.828125 61.225289 
L 399.948125 61.225289 
" style="fill:none;stroke:#b0b0b0;stroke-linecap:square;stroke-width:0.8;"/>
     </g>
     <g id="line2d_22">
      <g>
       <use style="stroke:#000000;stroke-width:0.8;" x="42.828125" xlink:href="#me8db2c1eea" y="61.225289"/>
      </g>
     </g>
     <g id="text_11">
      <!-- 1.002 -->
      <g transform="translate(7.2 65.024508)scale(0.1 -0.1)">
       <use xlink:href="#DejaVuSans-49"/>
       <use x="63.623047" xlink:href="#DejaVuSans-46"/>
       <use x="95.410156" xlink:href="#DejaVuSans-48"/>
       <use x="159.033203" xlink:href="#DejaVuSans-48"/>
       <use x="222.65625" xlink:href="#DejaVuSans-50"/>
      </g>
     </g>
    </g>
    <g id="ytick_7">
     <g id="line2d_23">
      <path clip-path="url(#p25c5e98b47)" d="M 42.828125 21.714887 
L 399.948125 21.714887 
" style="fill:none;stroke:#b0b0b0;stroke-linecap:square;stroke-width:0.8;"/>
     </g>
     <g id="line2d_24">
      <g>
       <use style="stroke:#000000;stroke-width:0.8;" x="42.828125" xlink:href="#me8db2c1eea" y="21.714887"/>
      </g>
     </g>
     <g id="text_12">
      <!-- 1.003 -->
      <defs>
       <path d="M 40.578125 39.3125 
Q 47.65625 37.796875 51.625 33 
Q 55.609375 28.21875 55.609375 21.1875 
Q 55.609375 10.40625 48.1875 4.484375 
Q 40.765625 -1.421875 27.09375 -1.421875 
Q 22.515625 -1.421875 17.65625 -0.515625 
Q 12.796875 0.390625 7.625 2.203125 
L 7.625 11.71875 
Q 11.71875 9.328125 16.59375 8.109375 
Q 21.484375 6.890625 26.8125 6.890625 
Q 36.078125 6.890625 40.9375 10.546875 
Q 45.796875 14.203125 45.796875 21.1875 
Q 45.796875 27.640625 41.28125 31.265625 
Q 36.765625 34.90625 28.71875 34.90625 
L 20.21875 34.90625 
L 20.21875 43.015625 
L 29.109375 43.015625 
Q 36.375 43.015625 40.234375 45.921875 
Q 44.09375 48.828125 44.09375 54.296875 
Q 44.09375 59.90625 40.109375 62.90625 
Q 36.140625 65.921875 28.71875 65.921875 
Q 24.65625 65.921875 20.015625 65.03125 
Q 15.375 64.15625 9.8125 62.3125 
L 9.8125 71.09375 
Q 15.4375 72.65625 20.34375 73.4375 
Q 25.25 74.21875 29.59375 74.21875 
Q 40.828125 74.21875 47.359375 69.109375 
Q 53.90625 64.015625 53.90625 55.328125 
Q 53.90625 49.265625 50.4375 45.09375 
Q 46.96875 40.921875 40.578125 39.3125 
z
" id="DejaVuSans-51"/>
      </defs>
      <g transform="translate(7.2 25.514105)scale(0.1 -0.1)">
       <use xlink:href="#DejaVuSans-49"/>
       <use x="63.623047" xlink:href="#DejaVuSans-46"/>
       <use x="95.410156" xlink:href="#DejaVuSans-48"/>
       <use x="159.033203" xlink:href="#DejaVuSans-48"/>
       <use x="222.65625" xlink:href="#DejaVuSans-51"/>
      </g>
     </g>
    </g>
   </g>
   <g id="line2d_25">
    <path clip-path="url(#p25c5e98b47)" d="M 59.060852 140.271834 
L 62.478269 140.20897 
L 65.895685 140.271724 
L 69.313101 140.209152 
L 72.730517 140.27147 
L 76.147934 140.209478 
L 79.56535 140.271074 
L 82.982766 140.209944 
L 86.400182 140.27054 
L 89.817599 140.210545 
L 93.235015 140.269874 
L 96.652431 140.211273 
L 100.069847 140.269085 
L 103.487264 140.212121 
L 106.90468 140.268181 
L 110.322096 140.21308 
L 113.739513 140.267171 
L 117.156929 140.214138 
L 120.574345 140.266066 
L 123.991761 140.215285 
L 127.409178 140.264879 
L 130.826594 140.21651 
L 134.24401 140.263621 
L 137.661426 140.217798 
L 141.078843 140.262305 
L 144.496259 140.219139 
L 147.913675 140.260943 
L 151.331092 140.220519 
L 154.748508 140.259549 
L 158.165924 140.221924 
L 161.58334 140.258134 
L 165.000757 140.223344 
L 168.418173 140.256712 
L 171.835589 140.224765 
L 175.253005 140.255294 
L 178.670422 140.226177 
L 182.087838 140.253892 
L 185.505254 140.227568 
L 188.92267 140.252515 
L 192.340087 140.228929 
L 195.757503 140.251173 
L 199.174919 140.23025 
L 202.592336 140.249874 
L 206.009752 140.231524 
L 209.427168 140.248627 
L 212.844584 140.232742 
L 216.262001 140.247439 
L 219.679417 140.2339 
L 223.096833 140.246313 
L 226.514249 140.234992 
L 229.931666 140.245256 
L 233.349082 140.236013 
L 236.766498 140.244271 
L 240.183914 140.236962 
L 243.601331 140.243359 
L 247.018747 140.237836 
L 250.436163 140.242523 
L 253.85358 140.238634 
L 257.270996 140.241764 
L 260.688412 140.239355 
L 264.105828 140.24108 
L 267.523245 140.240001 
L 270.940661 140.240472 
L 274.358077 140.240573 
L 277.775493 140.239937 
L 281.19291 140.241072 
L 284.610326 140.239473 
L 288.027742 140.241501 
L 291.445158 140.239077 
L 294.862575 140.241864 
L 298.279991 140.238746 
L 301.697407 140.242163 
L 305.114824 140.238477 
L 308.53224 140.242403 
L 311.949656 140.238265 
L 315.367072 140.242588 
L 318.784489 140.238106 
L 322.201905 140.242722 
L 325.619321 140.237997 
L 329.036737 140.242809 
L 332.454154 140.237931 
L 335.87157 140.242854 
L 339.288986 140.237906 
L 342.706403 140.242861 
L 346.123819 140.237915 
L 349.541235 140.242835 
L 352.958651 140.237957 
L 356.376068 140.24278 
L 359.793484 140.238025 
L 363.2109 140.2427 
L 366.628316 140.238115 
L 370.045733 140.2426 
L 373.463149 140.238225 
L 376.880565 140.242482 
L 380.297981 140.23835 
L 383.715398 140.242351 
" style="fill:none;stroke:#1f77b4;stroke-linecap:square;stroke-width:1.5;"/>
   </g>
   <g id="line2d_26">
    <path clip-path="url(#p25c5e98b47)" d="M 59.060852 104.866502 
L 62.478269 105.880041 
L 65.895685 106.351652 
L 69.313101 107.361975 
L 72.730517 107.837399 
L 76.147934 108.84333 
L 79.56535 109.323706 
L 82.982766 110.324144 
L 86.400182 110.81053 
L 89.817599 111.804465 
L 93.235015 112.297822 
L 96.652431 113.284348 
L 100.069847 113.78552 
L 103.487264 114.763855 
L 106.90468 115.273561 
L 110.322096 116.243055 
L 113.739513 116.761874 
L 117.156929 117.722021 
L 120.574345 118.250382 
L 123.991761 119.200831 
L 127.409178 119.739006 
L 130.826594 120.679565 
L 134.24401 121.227665 
L 137.661426 122.158305 
L 141.078843 122.716276 
L 144.496259 123.637135 
L 147.913675 124.204757 
L 151.331092 125.116136 
L 154.748508 125.693026 
L 158.165924 126.595387 
L 161.58334 127.181006 
L 165.000757 128.074966 
L 168.418173 128.668623 
L 171.835589 129.554944 
L 175.253005 130.155806 
L 178.670422 131.035387 
L 182.087838 131.642493 
L 185.505254 132.516356 
L 188.92267 133.128627 
L 192.340087 133.997902 
L 195.757503 134.614162 
L 199.174919 135.48007 
L 202.592336 136.099056 
L 206.009752 136.962893 
L 209.427168 137.583282 
L 212.844584 138.446397 
L 216.262001 139.066817 
L 219.679417 139.930596 
L 223.096833 140.549653 
L 226.514249 141.415496 
L 229.931666 142.031791 
L 233.349082 142.90109 
L 236.766498 143.513241 
L 240.183914 144.387362 
L 243.601331 144.994026 
L 247.018747 145.874286 
L 250.436163 146.474176 
L 253.85358 147.361824 
L 257.270996 147.953734 
L 260.688412 148.849929 
L 264.105828 149.43275 
L 267.523245 150.338548 
L 270.940661 150.911284 
L 274.358077 151.827616 
L 277.775493 152.389404 
L 281.19291 153.317063 
L 284.610326 153.867183 
L 288.027742 154.80681 
L 291.445158 155.344701 
L 294.862575 156.296777 
L 298.279991 156.822043 
L 301.697407 157.786876 
L 305.114824 158.299298 
L 308.53224 159.277017 
L 311.949656 159.776555 
L 315.367072 160.76711 
L 318.784489 161.253906 
L 322.201905 162.257064 
L 325.619321 162.731441 
L 329.036737 163.74679 
L 332.454154 164.209248 
L 335.87157 165.236199 
L 339.288986 165.687414 
L 342.706403 166.72521 
L 346.123819 167.166019 
L 349.541235 168.213743 
L 352.958651 168.645137 
L 356.376068 169.701728 
L 359.793484 170.124836 
L 363.2109 171.189101 
L 366.628316 171.605177 
L 370.045733 172.675807 
L 373.463149 173.086208 
L 376.880565 174.1618 
L 380.297981 174.567972 
L 383.715398 175.647043 
" style="fill:none;stroke:#ff7f0e;stroke-linecap:square;stroke-width:1.5;"/>
   </g>
   <g id="line2d_27">
    <path clip-path="url(#p25c5e98b47)" d="M 59.060852 19.296 
L 62.478269 22.74758 
L 65.895685 24.375281 
L 69.313101 27.813445 
L 72.730517 29.456529 
L 76.147934 32.877396 
L 79.56535 34.539631 
L 82.982766 37.939558 
L 86.400182 39.624448 
L 89.817599 43.000085 
L 93.235015 44.710813 
L 96.652431 48.059156 
L 100.069847 49.798535 
L 103.487264 53.116973 
L 106.90468 54.887404 
L 110.322096 58.173755 
L 113.739513 59.977188 
L 117.156929 63.229742 
L 120.574345 65.067645 
L 123.991761 68.285183 
L 127.409178 70.158517 
L 130.826594 73.340339 
L 134.24401 75.249543 
L 137.661426 78.395474 
L 141.078843 80.340457 
L 144.496259 83.450854 
L 147.913675 85.430994 
L 151.331092 88.506742 
L 154.748508 90.520894 
L 158.165924 93.563395 
L 161.58334 95.609907 
L 165.000757 98.621057 
L 168.418173 100.697793 
L 171.835589 103.67996 
L 175.253005 105.78433 
L 178.670422 108.740318 
L 182.087838 110.869315 
L 185.505254 113.802322 
L 188.92267 115.952566 
L 192.340087 118.866143 
L 195.757503 121.033928 
L 199.174919 123.931922 
L 202.592336 126.11327 
L 206.009752 128.999776 
L 209.427168 131.190493 
L 212.844584 134.069789 
L 216.262001 136.265525 
L 219.679417 139.142016 
L 223.096833 141.338328 
L 226.514249 144.21648 
L 229.931666 146.408894 
L 233.349082 149.293173 
L 236.766498 151.477247 
L 240.183914 154.372053 
L 243.601331 156.543445 
L 247.018747 159.453048 
L 250.436163 161.607575 
L 253.85358 164.536056 
L 257.270996 166.669754 
L 260.688412 169.620944 
L 264.105828 171.730127 
L 267.523245 174.707554 
L 270.940661 176.788867 
L 274.358077 179.7957 
L 277.775493 181.84617 
L 281.19291 184.885177 
L 284.610326 186.902253 
L 288.027742 189.975757 
L 291.445158 191.957352 
L 294.862575 195.067195 
L 298.279991 197.011719 
L 301.697407 200.159236 
L 305.114824 202.065615 
L 308.53224 205.251612 
L 311.949656 207.119312 
L 315.367072 210.344051 
L 318.784489 212.173082 
L 322.201905 215.43628 
L 325.619321 217.2272 
L 329.036737 220.528026 
L 332.454154 222.281934 
L 335.87157 225.619025 
L 339.288986 227.337544 
L 342.706403 230.709022 
L 346.123819 232.394278 
L 349.541235 235.797779 
L 352.958651 237.452367 
L 356.376068 240.885072 
L 359.793484 242.512023 
L 363.2109 245.970703 
L 366.628316 247.573434 
L 370.045733 251.054495 
L 373.463149 252.636761 
L 376.880565 256.136301 
L 380.297981 257.70214 
L 383.715398 261.216 
" style="fill:none;stroke:#2ca02c;stroke-linecap:square;stroke-width:1.5;"/>
   </g>
   <g id="patch_3">
    <path d="M 42.828125 273.312 
L 42.828125 7.2 
" style="fill:none;stroke:#000000;stroke-linecap:square;stroke-linejoin:miter;stroke-width:0.8;"/>
   </g>
   <g id="patch_4">
    <path d="M 399.948125 273.312 
L 399.948125 7.2 
" style="fill:none;stroke:#000000;stroke-linecap:square;stroke-linejoin:miter;stroke-width:0.8;"/>
   </g>
   <g id="patch_5">
    <path d="M 42.828125 273.312 
L 399.948125 273.312 
" style="fill:none;stroke:#000000;stroke-linecap:square;stroke-linejoin:miter;stroke-width:0.8;"/>
   </g>
   <g id="patch_6">
    <path d="M 42.828125 7.2 
L 399.948125 7.2 
" style="fill:none;stroke:#000000;stroke-linecap:square;stroke-linejoin:miter;stroke-width:0.8;"/>
   </g>
   <g id="legend_1">
    <g id="patch_7">
     <path d="M 291.474688 59.234375 
L 392.948125 59.234375 
Q 394.948125 59.234375 394.948125 57.234375 
L 394.948125 14.2 
Q 394.948125 12.2 392.948125 12.2 
L 291.474688 12.2 
Q 289.474688 12.2 289.474688 14.2 
L 289.474688 57.234375 
Q 289.474688 59.234375 291.474688 59.234375 
z
" style="fill:#ffffff;opacity:0.8;stroke:#cccccc;stroke-linejoin:miter;"/>
    </g>
    <g id="line2d_28">
     <path d="M 293.474688 20.298437 
L 313.474688 20.298437 
" style="fill:none;stroke:#1f77b4;stroke-linecap:square;stroke-width:1.5;"/>
    </g>
    <g id="line2d_29"/>
    <g id="text_13">
     <!-- Coupling 0.0 -->
     <defs>
      <path d="M 64.40625 67.28125 
L 64.40625 56.890625 
Q 59.421875 61.53125 53.78125 63.8125 
Q 48.140625 66.109375 41.796875 66.109375 
Q 29.296875 66.109375 22.65625 58.46875 
Q 16.015625 50.828125 16.015625 36.375 
Q 16.015625 21.96875 22.65625 14.328125 
Q 29.296875 6.6875 41.796875 6.6875 
Q 48.140625 6.6875 53.78125 8.984375 
Q 59.421875 11.28125 64.40625 15.921875 
L 64.40625 5.609375 
Q 59.234375 2.09375 53.4375 0.328125 
Q 47.65625 -1.421875 41.21875 -1.421875 
Q 24.65625 -1.421875 15.125 8.703125 
Q 5.609375 18.84375 5.609375 36.375 
Q 5.609375 53.953125 15.125 64.078125 
Q 24.65625 74.21875 41.21875 74.21875 
Q 47.75 74.21875 53.53125 72.484375 
Q 59.328125 70.75 64.40625 67.28125 
z
" id="DejaVuSans-67"/>
      <path d="M 30.609375 48.390625 
Q 23.390625 48.390625 19.1875 42.75 
Q 14.984375 37.109375 14.984375 27.296875 
Q 14.984375 17.484375 19.15625 11.84375 
Q 23.34375 6.203125 30.609375 6.203125 
Q 37.796875 6.203125 41.984375 11.859375 
Q 46.1875 17.53125 46.1875 27.296875 
Q 46.1875 37.015625 41.984375 42.703125 
Q 37.796875 48.390625 30.609375 48.390625 
z
M 30.609375 56 
Q 42.328125 56 49.015625 48.375 
Q 55.71875 40.765625 55.71875 27.296875 
Q 55.71875 13.875 49.015625 6.21875 
Q 42.328125 -1.421875 30.609375 -1.421875 
Q 18.84375 -1.421875 12.171875 6.21875 
Q 5.515625 13.875 5.515625 27.296875 
Q 5.515625 40.765625 12.171875 48.375 
Q 18.84375 56 30.609375 56 
z
" id="DejaVuSans-111"/>
      <path d="M 8.5 21.578125 
L 8.5 54.6875 
L 17.484375 54.6875 
L 17.484375 21.921875 
Q 17.484375 14.15625 20.5 10.265625 
Q 23.53125 6.390625 29.59375 6.390625 
Q 36.859375 6.390625 41.078125 11.03125 
Q 45.3125 15.671875 45.3125 23.6875 
L 45.3125 54.6875 
L 54.296875 54.6875 
L 54.296875 0 
L 45.3125 0 
L 45.3125 8.40625 
Q 42.046875 3.421875 37.71875 1 
Q 33.40625 -1.421875 27.6875 -1.421875 
Q 18.265625 -1.421875 13.375 4.4375 
Q 8.5 10.296875 8.5 21.578125 
z
M 31.109375 56 
z
" id="DejaVuSans-117"/>
      <path d="M 18.109375 8.203125 
L 18.109375 -20.796875 
L 9.078125 -20.796875 
L 9.078125 54.6875 
L 18.109375 54.6875 
L 18.109375 46.390625 
Q 20.953125 51.265625 25.265625 53.625 
Q 29.59375 56 35.59375 56 
Q 45.5625 56 51.78125 48.09375 
Q 58.015625 40.1875 58.015625 27.296875 
Q 58.015625 14.40625 51.78125 6.484375 
Q 45.5625 -1.421875 35.59375 -1.421875 
Q 29.59375 -1.421875 25.265625 0.953125 
Q 20.953125 3.328125 18.109375 8.203125 
z
M 48.6875 27.296875 
Q 48.6875 37.203125 44.609375 42.84375 
Q 40.53125 48.484375 33.40625 48.484375 
Q 26.265625 48.484375 22.1875 42.84375 
Q 18.109375 37.203125 18.109375 27.296875 
Q 18.109375 17.390625 22.1875 11.75 
Q 26.265625 6.109375 33.40625 6.109375 
Q 40.53125 6.109375 44.609375 11.75 
Q 48.6875 17.390625 48.6875 27.296875 
z
" id="DejaVuSans-112"/>
      <path d="M 9.421875 75.984375 
L 18.40625 75.984375 
L 18.40625 0 
L 9.421875 0 
z
" id="DejaVuSans-108"/>
      <path d="M 9.421875 54.6875 
L 18.40625 54.6875 
L 18.40625 0 
L 9.421875 0 
z
M 9.421875 75.984375 
L 18.40625 75.984375 
L 18.40625 64.59375 
L 9.421875 64.59375 
z
" id="DejaVuSans-105"/>
      <path d="M 54.890625 33.015625 
L 54.890625 0 
L 45.90625 0 
L 45.90625 32.71875 
Q 45.90625 40.484375 42.875 44.328125 
Q 39.84375 48.1875 33.796875 48.1875 
Q 26.515625 48.1875 22.3125 43.546875 
Q 18.109375 38.921875 18.109375 30.90625 
L 18.109375 0 
L 9.078125 0 
L 9.078125 54.6875 
L 18.109375 54.6875 
L 18.109375 46.1875 
Q 21.34375 51.125 25.703125 53.5625 
Q 30.078125 56 35.796875 56 
Q 45.21875 56 50.046875 50.171875 
Q 54.890625 44.34375 54.890625 33.015625 
z
" id="DejaVuSans-110"/>
      <path d="M 45.40625 27.984375 
Q 45.40625 37.75 41.375 43.109375 
Q 37.359375 48.484375 30.078125 48.484375 
Q 22.859375 48.484375 18.828125 43.109375 
Q 14.796875 37.75 14.796875 27.984375 
Q 14.796875 18.265625 18.828125 12.890625 
Q 22.859375 7.515625 30.078125 7.515625 
Q 37.359375 7.515625 41.375 12.890625 
Q 45.40625 18.265625 45.40625 27.984375 
z
M 54.390625 6.78125 
Q 54.390625 -7.171875 48.1875 -13.984375 
Q 42 -20.796875 29.203125 -20.796875 
Q 24.46875 -20.796875 20.265625 -20.09375 
Q 16.0625 -19.390625 12.109375 -17.921875 
L 12.109375 -9.1875 
Q 16.0625 -11.328125 19.921875 -12.34375 
Q 23.78125 -13.375 27.78125 -13.375 
Q 36.625 -13.375 41.015625 -8.765625 
Q 45.40625 -4.15625 45.40625 5.171875 
L 45.40625 9.625 
Q 42.625 4.78125 38.28125 2.390625 
Q 33.9375 0 27.875 0 
Q 17.828125 0 11.671875 7.65625 
Q 5.515625 15.328125 5.515625 27.984375 
Q 5.515625 40.671875 11.671875 48.328125 
Q 17.828125 56 27.875 56 
Q 33.9375 56 38.28125 53.609375 
Q 42.625 51.21875 45.40625 46.390625 
L 45.40625 54.6875 
L 54.390625 54.6875 
z
" id="DejaVuSans-103"/>
      <path id="DejaVuSans-32"/>
     </defs>
     <g transform="translate(321.474688 23.798437)scale(0.1 -0.1)">
      <use xlink:href="#DejaVuSans-67"/>
      <use x="69.824219" xlink:href="#DejaVuSans-111"/>
      <use x="131.005859" xlink:href="#DejaVuSans-117"/>
      <use x="194.384766" xlink:href="#DejaVuSans-112"/>
      <use x="257.861328" xlink:href="#DejaVuSans-108"/>
      <use x="285.644531" xlink:href="#DejaVuSans-105"/>
      <use x="313.427734" xlink:href="#DejaVuSans-110"/>
      <use x="376.806641" xlink:href="#DejaVuSans-103"/>
      <use x="440.283203" xlink:href="#DejaVuSans-32"/>
      <use x="472.070312" xlink:href="#DejaVuSans-48"/>
      <use x="535.693359" xlink:href="#DejaVuSans-46"/>
      <use x="567.480469" xlink:href="#DejaVuSans-48"/>
     </g>
    </g>
    <g id="line2d_30">
     <path d="M 293.474688 34.976562 
L 313.474688 34.976562 
" style="fill:none;stroke:#ff7f0e;stroke-linecap:square;stroke-width:1.5;"/>
    </g>
    <g id="line2d_31"/>
    <g id="text_14">
     <!-- Coupling 0.05 -->
     <defs>
      <path d="M 10.796875 72.90625 
L 49.515625 72.90625 
L 49.515625 64.59375 
L 19.828125 64.59375 
L 19.828125 46.734375 
Q 21.96875 47.46875 24.109375 47.828125 
Q 26.265625 48.1875 28.421875 48.1875 
Q 40.625 48.1875 47.75 41.5 
Q 54.890625 34.8125 54.890625 23.390625 
Q 54.890625 11.625 47.5625 5.09375 
Q 40.234375 -1.421875 26.90625 -1.421875 
Q 22.3125 -1.421875 17.546875 -0.640625 
Q 12.796875 0.140625 7.71875 1.703125 
L 7.71875 11.625 
Q 12.109375 9.234375 16.796875 8.0625 
Q 21.484375 6.890625 26.703125 6.890625 
Q 35.15625 6.890625 40.078125 11.328125 
Q 45.015625 15.765625 45.015625 23.390625 
Q 45.015625 31 40.078125 35.4375 
Q 35.15625 39.890625 26.703125 39.890625 
Q 22.75 39.890625 18.8125 39.015625 
Q 14.890625 38.140625 10.796875 36.28125 
z
" id="DejaVuSans-53"/>
     </defs>
     <g transform="translate(321.474688 38.476562)scale(0.1 -0.1)">
      <use xlink:href="#DejaVuSans-67"/>
      <use x="69.824219" xlink:href="#DejaVuSans-111"/>
      <use x="131.005859" xlink:href="#DejaVuSans-117"/>
      <use x="194.384766" xlink:href="#DejaVuSans-112"/>
      <use x="257.861328" xlink:href="#DejaVuSans-108"/>
      <use x="285.644531" xlink:href="#DejaVuSans-105"/>
      <use x="313.427734" xlink:href="#DejaVuSans-110"/>
      <use x="376.806641" xlink:href="#DejaVuSans-103"/>
      <use x="440.283203" xlink:href="#DejaVuSans-32"/>
      <use x="472.070312" xlink:href="#DejaVuSans-48"/>
      <use x="535.693359" xlink:href="#DejaVuSans-46"/>
      <use x="567.480469" xlink:href="#DejaVuSans-48"/>
      <use x="631.103516" xlink:href="#DejaVuSans-53"/>
     </g>
    </g>
    <g id="line2d_32">
     <path d="M 293.474688 49.654687 
L 313.474688 49.654687 
" style="fill:none;stroke:#2ca02c;stroke-linecap:square;stroke-width:1.5;"/>
    </g>
    <g id="line2d_33"/>
    <g id="text_15">
     <!-- Coupling 0.1 -->
     <g transform="translate(321.474688 53.154687)scale(0.1 -0.1)">
      <use xlink:href="#DejaVuSans-67"/>
      <use x="69.824219" xlink:href="#DejaVuSans-111"/>
      <use x="131.005859" xlink:href="#DejaVuSans-117"/>
      <use x="194.384766" xlink:href="#DejaVuSans-112"/>
      <use x="257.861328" xlink:href="#DejaVuSans-108"/>
      <use x="285.644531" xlink:href="#DejaVuSans-105"/>
      <use x="313.427734" xlink:href="#DejaVuSans-110"/>
      <use x="376.806641" xlink:href="#DejaVuSans-103"/>
      <use x="440.283203" xlink:href="#DejaVuSans-32"/>
      <use x="472.070312" xlink:href="#DejaVuSans-48"/>
      <use x="535.693359" xlink:href="#DejaVuSans-46"/>
      <use x="567.480469" xlink:href="#DejaVuSans-49"/>
     </g>
    </g>
   </g>
  </g>
 </g>
 <defs>
  <clipPath id="p25c5e98b47">
   <rect height="266.112" width="357.12" x="42.828125" y="7.2"/>
  </clipPath>
 </defs>
</svg>
